<?xml version="1.0" encoding="UTF-8" standalone="no" ?>
<!DOCTYPE svg PUBLIC "-//W3C//DTD SVG 1.1//EN" "http://www.w3.org/Graphics/SVG/1.1/DTD/svg11.dtd">
<svg xmlns="http://www.w3.org/2000/svg" xmlns:xlink="http://www.w3.org/1999/xlink" version="1.1" width="400" height="400" viewBox="0 0 400 400" xml:space="preserve">
<desc>Created with Fabric.js 3.6.2</desc>
<defs>
</defs>
<g transform="matrix(1.56 0 0 1.56 173.44 171.88)" id="Layer_1"  >
<circle style="stroke: none; stroke-width: 1; stroke-dasharray: none; stroke-linecap: butt; stroke-dashoffset: 0; stroke-linejoin: miter; stroke-miterlimit: 4; fill: rgb(0,0,0); fill-rule: nonzero; opacity: 1;"  cx="0" cy="0" r="6" />
</g>
<g transform="matrix(1.56 0 0 1.56 210.94 210.94)" id="Layer_1"  >
<path style="stroke: none; stroke-width: 1; stroke-dasharray: none; stroke-linecap: butt; stroke-dashoffset: 0; stroke-linejoin: miter; stroke-miterlimit: 4; fill: rgb(0,0,0); fill-rule: nonzero; opacity: 1;"  transform=" translate(-71, -71)" d="M 76 56 c -5.52 0 -10 2 -10 7 V 56 H 56 V 86 H 66 V 70 c 0 -1.66 1 -7 5 -7 c 2.76 0 5 1.34 5 3 V 86 H 86 V 66 A 10 10 0 0 0 76 56 Z" stroke-linecap="round" />
</g>
<g transform="matrix(1.56 0 0 1.56 173.44 210.94)" id="Layer_1"  >
<rect style="stroke: none; stroke-width: 1; stroke-dasharray: none; stroke-linecap: butt; stroke-dashoffset: 0; stroke-linejoin: miter; stroke-miterlimit: 4; fill: rgb(0,0,0); fill-rule: nonzero; opacity: 1;"  x="-5" y="-15" rx="0" ry="0" width="10" height="30" />
</g>
<g transform="matrix(1.56 0 0 1.56 200 200)" id="Layer_1"  >
<path style="stroke: none; stroke-width: 1; stroke-dasharray: none; stroke-linecap: butt; stroke-dashoffset: 0; stroke-linejoin: miter; stroke-miterlimit: 4; fill: rgb(0,0,0); fill-rule: nonzero; opacity: 1;"  transform=" translate(-64, -64)" d="M 104 0 H 24 A 24.07 24.07 0 0 0 0 24 v 80 a 24.07 24.07 0 0 0 24 24 h 80 a 24.07 24.07 0 0 0 24 -24 V 24 A 24.07 24.07 0 0 0 104 0 Z M 96 92 a 4 4 0 0 1 -4 4 H 36 a 4 4 0 0 1 -4 -4 V 36 a 4 4 0 0 1 4 -4 H 92 a 4 4 0 0 1 4 4 Z" stroke-linecap="round" />
</g>
</svg>